<svg xmlns="http://www.w3.org/2000/svg" viewBox="0 0 140 142.89"><defs><style>.cls-1{isolation:isolate;}.cls-2{opacity:0.92;}.cls-3{opacity:0.35;mix-blend-mode:multiply;}.cls-4{fill:#fff;}</style></defs><title>DAS_ICONS</title><g class="cls-1"><g id="Calque_1" data-name="Calque 1"><g class="cls-2"><g class="cls-3"><path d="M137.41,44.85a2.13,2.13,0,0,0-2-1.56l-64.95.18a35.75,35.75,0,0,0-15,3.58L13,73.88a14.3,14.3,0,0,0-8.58,8.67,19.93,19.93,0,0,0,.88,17.36C8.2,104.48,15,105.18,16,105.27h.38l66.34-.18a3.07,3.07,0,0,0,1.68-.5l50.68-31.95a3.18,3.18,0,0,0-3.4-5.36L81.78,98.71l-65.41.2h-.09c-1.34-.11-4.63-.88-5.6-2.41a13.76,13.76,0,0,1-.36-11.55,8.26,8.26,0,0,1,5.17-5.26h.13l57.88-.16a45.41,45.41,0,0,0,5.56-.34l57.44-32a2.09,2.09,0,0,0,.91-2.38"/></g><path class="cls-4" d="M134.58,42a2.13,2.13,0,0,0-2-1.56l-64.95.18a35.75,35.75,0,0,0-15,3.58L10.16,71a14.3,14.3,0,0,0-8.58,8.67,19.93,19.93,0,0,0,.88,17.36c2.91,4.58,9.67,5.27,10.73,5.36h.38l66.34-.18a3.07,3.07,0,0,0,1.68-.5l50.68-31.95a3.18,3.18,0,0,0-3.4-5.36L78.95,95.87l-65.41.2h-.09c-1.34-.11-4.63-.88-5.6-2.41A13.76,13.76,0,0,1,7.5,82.11a8.26,8.26,0,0,1,5.17-5.26h.13l57.88-.16a45.41,45.41,0,0,0,5.56-.34l57.44-32a2.09,2.09,0,0,0,.91-2.38"/></g></g></g></svg>