<svg xmlns="http://www.w3.org/2000/svg" viewBox="0 0 140 142.89"><defs><style>.cls-1{isolation:isolate;}.cls-2{opacity:0.92;}.cls-3{opacity:0.35;mix-blend-mode:multiply;}.cls-4{fill:#fff;}</style></defs><title>DAS_ICONS</title><g class="cls-1"><g id="Calque_1" data-name="Calque 1"><g class="cls-2"><g class="cls-3"><path d="M73,140.69c-19.16-.12-38.82.25-57.68-.19.71-3.1-.46-6.19.19-8.75S21.41,128,24,126.93c1.55-.62,3.1-1.36,4.64-2s3.73-1.07,4.83-1.67c2.18-1.21,1.21-3.59,3.73-4.46-.29-1.38-1.15-1.44-1.55-2.6s.25-3.1-.37-4.27c-.43-.77-1.69-.79-2-1.3a10.84,10.84,0,0,1-.93-5.59c.09-1,.7-1.72.74-2.41a26,26,0,0,0-.56-3.1c-.6-7.88,4-11.32,10.84-11.9a12,12,0,0,1,4.83.56c.87.33,1.72,1.33,2.79,1.86.79.39,1.72.34,2.23.74,3,2.31.56,7.34,1.3,11.72.2,1.19,1,2.15,1.11,3.34a10.29,10.29,0,0,1-.67,4.37c-.57,1-2.06,1.39-2.41,2.23-.25.59,0,2-.19,3-.36,1.44-2.06,2-1.67,3.1.12.37,1.38.48,1.67.74.88.8,1.13,3.25,2.23,3.9s3.72,1.1,5,1.67,3.19,1.24,4.64,1.86c2.77,1.19,7.52,2.34,8.37,4.64S72.39,137.52,73,140.69Z"/><path d="M122.61,114c-19.16-.12-38.82.25-57.68-.19.71-3.1-.46-6.19.19-8.75s5.94-3.75,8.56-4.83c1.55-.62,3.1-1.36,4.64-2s3.73-1.07,4.83-1.67c2.18-1.21,1.21-3.59,3.73-4.46-.29-1.38-1.15-1.44-1.55-2.6s.25-3.1-.37-4.27c-.43-.77-1.69-.79-2-1.3A10.84,10.84,0,0,1,82,78.34c.09-1,.7-1.72.74-2.41a26,26,0,0,0-.56-3.1c-.6-7.88,4-11.32,10.84-11.9a12,12,0,0,1,4.83.56c.87.33,1.72,1.33,2.79,1.86.79.39,1.72.34,2.23.74,3,2.31.56,7.34,1.3,11.72.2,1.19,1,2.15,1.11,3.34a10.29,10.29,0,0,1-.74,4.46c-.57,1-2.06,1.39-2.41,2.23-.25.59,0,2-.19,3-.36,1.44-2.06,2-1.67,3.1.12.37,1.38.48,1.67.74.88.8,1.13,3.25,2.23,3.9s3.72,1.1,5,1.67,3.19,1.24,4.64,1.86c2.77,1.19,7.52,2.34,8.37,4.64S122.07,110.87,122.61,114Z"/><path d="M75.65,76.89c-19.16-.12-38.82.25-57.68-.19.71-3.1-.46-6.19.19-8.75s5.94-3.75,8.56-4.83c1.55-.62,3.1-1.36,4.64-2s3.73-1.07,4.83-1.67c2.18-1.21,1.21-3.59,3.73-4.46-.29-1.38-1.15-1.44-1.55-2.6s.25-3.1-.37-4.27c-.43-.77-1.69-.79-2-1.3A10.84,10.84,0,0,1,35,41.19c.09-1,.7-1.72.74-2.41a26,26,0,0,0-.56-3.1c-.6-7.88,4-11.32,10.84-11.9a12,12,0,0,1,4.83.56c.87.33,1.72,1.33,2.79,1.86.79.39,1.72.34,2.23.74,3,2.31.56,7.34,1.3,11.72.2,1.19,1,2.15,1.11,3.34a10.29,10.29,0,0,1-.74,4.46c-.57,1-2.06,1.39-2.41,2.23-.25.59,0,2-.19,3-.36,1.44-2.06,2-1.67,3.1.12.37,1.38.48,1.67.74.88.8,1.13,3.25,2.23,3.9s3.72,1.1,5,1.67,3.19,1.24,4.64,1.86c2.77,1.19,7.52,2.34,8.37,4.64S75.07,73.72,75.65,76.89Z"/><path d="M131.79,56c-19.16-.12-38.82.25-57.68-.19.71-3.1-.46-6.19.19-8.75s5.94-3.75,8.56-4.83c1.55-.62,3.1-1.36,4.64-2s3.73-1.07,4.83-1.67c2.18-1.21,1.21-3.59,3.73-4.46-.29-1.38-1.15-1.44-1.55-2.6s.25-3.1-.37-4.27c-.43-.77-1.69-.79-2-1.3a10.84,10.84,0,0,1-.93-5.59c.09-1,.7-1.72.74-2.41a26,26,0,0,0-.56-3.1c-.6-7.88,4-11.32,10.84-11.9a12,12,0,0,1,4.83.56c.87.33,1.72,1.33,2.79,1.86.79.39,1.72.34,2.23.74,3,2.31.56,7.34,1.3,11.72.2,1.19,1,2.15,1.11,3.34a10.29,10.29,0,0,1-.68,4.38c-.57,1-2.06,1.39-2.41,2.23-.25.59,0,2-.19,3-.36,1.44-2.06,2-1.67,3.1.12.37,1.38.48,1.67.74.88.8,1.13,3.25,2.23,3.9s3.72,1.1,5,1.67,3.19,1.24,4.64,1.86c2.77,1.19,7.52,2.34,8.37,4.64S131.25,52.82,131.79,56Z"/></g><path class="cls-4" d="M70.12,137.86c-19.16-.12-38.82.25-57.68-.19.71-3.1-.46-6.19.19-8.75s5.94-3.75,8.56-4.83c1.55-.62,3.1-1.36,4.64-2s3.73-1.07,4.83-1.67c2.18-1.21,1.21-3.59,3.73-4.46-.29-1.38-1.15-1.44-1.55-2.6s.25-3.1-.37-4.27c-.43-.77-1.69-.79-2-1.3a10.84,10.84,0,0,1-.93-5.59c.09-1,.7-1.72.74-2.41a26,26,0,0,0-.56-3.1c-.6-7.88,4-11.32,10.84-11.9a12,12,0,0,1,4.83.56c.87.33,1.72,1.33,2.79,1.86.79.39,1.72.34,2.23.74,3,2.31.56,7.34,1.3,11.72.2,1.19,1,2.15,1.11,3.34a10.29,10.29,0,0,1-.67,4.37c-.57,1-2.06,1.39-2.41,2.23-.25.59,0,2-.19,3-.36,1.44-2.06,2-1.67,3.1.12.37,1.38.48,1.67.74.88.8,1.13,3.25,2.23,3.9s3.72,1.1,5,1.67,3.19,1.24,4.64,1.86c2.77,1.19,7.52,2.34,8.37,4.64S69.56,134.69,70.12,137.86Z"/><path class="cls-4" d="M119.77,111.2c-19.16-.12-38.82.25-57.68-.19.71-3.1-.46-6.19.19-8.75s5.94-3.75,8.56-4.83c1.55-.62,3.1-1.36,4.64-2s3.73-1.07,4.83-1.67c2.18-1.21,1.21-3.59,3.73-4.46-.29-1.38-1.15-1.44-1.55-2.6s.25-3.1-.37-4.27c-.43-.77-1.69-.79-2-1.3a10.84,10.84,0,0,1-.93-5.59c.09-1,.7-1.72.74-2.41a26,26,0,0,0-.56-3.1c-.6-7.88,4-11.32,10.84-11.9a12,12,0,0,1,4.83.56c.87.33,1.72,1.33,2.79,1.86.79.39,1.72.34,2.23.74,3,2.31.56,7.34,1.3,11.72.2,1.19,1,2.15,1.11,3.34a10.29,10.29,0,0,1-.74,4.46c-.57,1-2.06,1.39-2.41,2.23-.25.59,0,2-.19,3-.36,1.44-2.06,2-1.67,3.1.12.37,1.38.48,1.67.74.88.8,1.13,3.25,2.23,3.9s3.72,1.1,5,1.67,3.19,1.24,4.64,1.86c2.77,1.19,7.52,2.34,8.37,4.64S119.23,108,119.77,111.2Z"/><path class="cls-4" d="M72.81,74.05c-19.16-.12-38.82.25-57.68-.19.71-3.1-.46-6.19.19-8.75s5.94-3.75,8.56-4.83c1.55-.62,3.1-1.36,4.64-2s3.73-1.07,4.83-1.67c2.18-1.21,1.21-3.59,3.73-4.46-.29-1.38-1.15-1.44-1.55-2.6s.25-3.1-.37-4.27c-.43-.77-1.69-.79-2-1.3a10.84,10.84,0,0,1-.93-5.59c.09-1,.7-1.72.74-2.41a26,26,0,0,0-.56-3.1c-.6-7.88,4-11.32,10.84-11.9A12,12,0,0,1,48,21.5c.87.33,1.72,1.33,2.79,1.86.79.39,1.72.34,2.23.74,3,2.31.56,7.34,1.3,11.72.2,1.19,1,2.15,1.11,3.34a10.29,10.29,0,0,1-.74,4.46c-.57,1-2.06,1.39-2.41,2.23-.25.59,0,2-.19,3-.36,1.44-2.06,2-1.67,3.1.12.37,1.38.48,1.67.74.88.8,1.13,3.25,2.23,3.9s3.72,1.1,5,1.67,3.19,1.24,4.64,1.86c2.77,1.19,7.52,2.34,8.37,4.64S72.24,70.88,72.81,74.05Z"/><path class="cls-4" d="M129,53.16C109.79,53,90.13,53.4,71.28,53c.71-3.1-.46-6.19.19-8.75S77.41,40.48,80,39.4c1.55-.62,3.1-1.36,4.64-2s3.73-1.07,4.83-1.67c2.18-1.21,1.21-3.59,3.73-4.46-.29-1.38-1.15-1.44-1.55-2.6s.25-3.1-.37-4.27c-.43-.77-1.69-.79-2-1.3a10.84,10.84,0,0,1-.93-5.59c.09-1,.7-1.72.74-2.41a26,26,0,0,0-.56-3.1C87.92,4.07,92.52.64,99.36,0a12,12,0,0,1,4.83.56c.87.33,1.72,1.33,2.79,1.86.79.39,1.72.34,2.23.74,3,2.31.56,7.34,1.3,11.72.2,1.19,1,2.15,1.11,3.34a10.29,10.29,0,0,1-.68,4.38c-.57,1-2.06,1.39-2.41,2.23-.25.59,0,2-.19,3-.36,1.44-2.06,2-1.67,3.1.12.37,1.38.48,1.67.74.88.8,1.13,3.25,2.23,3.9s3.72,1.1,5,1.67,3.19,1.24,4.64,1.86c2.77,1.19,7.52,2.34,8.37,4.64S128.41,50,129,53.16Z"/></g></g></g></svg>