<svg id="Calque_1" data-name="Calque 1" xmlns="http://www.w3.org/2000/svg" viewBox="0 0 140 142.89"><defs><style>.cls-1{opacity:0.35;}.cls-2{opacity:0.92;}.cls-3{fill:#fff;}</style></defs><title>DAS_ICONS</title><g class="cls-1"><polygon points="136.45 22.09 126.38 88.27 88.17 119.98 5.27 102.79 4.09 103.43 88.38 121.48 126.33 89.74 126.33 91.02 126.33 92.99 88.75 126.15 3.38 106.12 3.47 107.62 89.91 127.9 127.49 94.74 127.53 90.02 137.88 22.06 136.45 22.09"/><path d="M94.17,24.89a1.18,1.18,0,0,0,1.21-1.14A1.17,1.17,0,0,0,93,23.69,1.17,1.17,0,0,0,94.17,24.89Z"/><polygon points="42.16 108.7 51.34 103.45 65.8 105.9 67.69 104.67 50.19 101.7 39.05 108.07 42.16 108.7"/><polygon points="49.88 82.55 118.05 90.14 119.99 88.74 48.73 80.8 24.09 94.02 27.46 94.58 49.88 82.55"/><polygon points="61.55 27.34 130.09 27.34 130.33 25.59 60.39 25.59 50.05 74.41 51.54 74.57 61.55 27.34"/></g><g class="cls-2"><path class="cls-3" d="M136.75,20.27l-10.34,68L88.2,119.94,2.12,102.1l44.21-24L58,22Zm-14.3,61.6,7.91-56.32H60.42L50.08,74.38Zm-26.2,24.06L120,88.7,48.75,80.76,24.12,94Zm-.84-82.22a1.17,1.17,0,1,0-1.21,1.14A1.18,1.18,0,0,0,95.41,23.71ZM56.9,111.66l10.82-7-17.51-3L39.08,108Z"/><polygon class="cls-3" points="126.36 89.7 126.36 92.95 88.78 126.11 2.34 105.83 2.13 102.97 88.41 121.44 126.36 89.7"/></g></svg>