<svg xmlns="http://www.w3.org/2000/svg" viewBox="0 0 140 142.89"><defs><style>.cls-1{isolation:isolate;}.cls-2{opacity:0.92;}.cls-3{opacity:0.35;mix-blend-mode:multiply;}.cls-4{fill:#fff;}</style></defs><title>DAS_ICONS</title><g class="cls-1"><g id="Calque_1" data-name="Calque 1"><g class="cls-2"><g class="cls-3"><path d="M67.23,2.83A10.06,10.06,0,0,0,57.17,12.9C57.17,18.45,67.23,36,67.23,36S77.29,18.54,77.29,12.9A10.06,10.06,0,0,0,67.23,2.83Zm0,16.82a6.7,6.7,0,1,1,6.7-6.7h0a6.7,6.7,0,0,1-6.68,6.71h0Z"/><path d="M49.47,38.81a31,31,0,0,0-31,31c0,17.12,31,70.92,31,70.92S80.43,86.92,80.43,69.8A31,31,0,0,0,49.47,38.81Zm0,51.84A20.62,20.62,0,1,1,70.08,70h0a20.62,20.62,0,0,1-20.6,20.63h0Z"/><path d="M103.68,17.25A21.44,21.44,0,0,0,82.24,38.69c0,11.83,21.44,49,21.44,49s21.44-37.16,21.44-49A21.44,21.44,0,0,0,103.68,17.25Zm0,35.81a14.23,14.23,0,1,1,14.23-14.23h0A14.23,14.23,0,0,1,103.7,53.08h0Z"/></g><path class="cls-4" d="M64.4,0A10.06,10.06,0,0,0,54.34,10.06c0,5.56,10.06,23.09,10.06,23.09S74.46,15.7,74.46,10.06A10.06,10.06,0,0,0,64.4,0Zm0,16.82a6.7,6.7,0,1,1,6.7-6.7h0a6.7,6.7,0,0,1-6.68,6.71h0Z"/><path class="cls-4" d="M46.63,36a31,31,0,0,0-31,31c0,17.12,31,70.92,31,70.92S77.59,84.09,77.59,67A31,31,0,0,0,46.63,36Zm0,51.84A20.62,20.62,0,1,1,67.25,67.2h0a20.62,20.62,0,0,1-20.6,20.63h0Z"/><path class="cls-4" d="M100.85,14.42A21.44,21.44,0,0,0,79.41,35.86c0,11.83,21.44,49,21.44,49s21.44-37.16,21.44-49A21.44,21.44,0,0,0,100.85,14.42Zm0,35.81A14.23,14.23,0,1,1,115.08,36h0a14.23,14.23,0,0,1-14.22,14.25h0Z"/></g></g></g></svg>