<svg xmlns="http://www.w3.org/2000/svg" viewBox="0 0 140 142.89"><defs><style>.cls-1{isolation:isolate;}.cls-2{opacity:0.92;}.cls-3{opacity:0.35;mix-blend-mode:multiply;}.cls-4{fill:#fff;}</style></defs><title>DAS_ICONS</title><g class="cls-1"><g id="Calque_1" data-name="Calque 1"><g class="cls-2"><g class="cls-3"><path d="M4.15,71.31a3.14,3.14,0,0,0,1.37.58,3.19,3.19,0,0,0,3.1-1.29L32,38.27a3.21,3.21,0,0,0-5.18-3.79L3.44,66.85A3.19,3.19,0,0,0,4.15,71.31ZM113.39,39l18.09,37.54a3.16,3.16,0,0,0,2.38,1.77,3.19,3.19,0,0,0,3.31-4.54l-18-37.54A3.19,3.19,0,1,0,113.45,39v0Zm3,38.86a3.2,3.2,0,1,0,3,5.63,15.71,15.71,0,0,0,7.1-6.84,3.31,3.31,0,0,0,.17-2.14c-.61-2.18-10.53-21.91-14.75-30.29a3.21,3.21,0,0,0-3.82-1.66c-.08,0-9.42,2.93-17.2.3A3.2,3.2,0,0,0,88.9,49a36.15,36.15,0,0,0,18.59.41c4.55,9,10.73,21.52,12.61,25.62a12.17,12.17,0,0,1-3.61,2.9Zm-40,29.41,4.65,5.78s3.54,3.69,6.62,1l22.43-20.57s3.31-4.35,1.09-7.17l-4.4-5.74s-3.31-1.66-5.33.15l-2,1.87a6.79,6.79,0,0,0-7.58.76,7.66,7.66,0,0,0-2.52,6.94,5.79,5.79,0,0,0-6,1.39c-2.81,2.7-1.13,7.3-1.13,7.3a6.62,6.62,0,0,0-4.83,1.66C74.94,102.72,76.42,107.31,76.42,107.31ZM36,44.11S17.26,69.62,16.38,71.64a12.84,12.84,0,0,0,5.11,5.88,35.88,35.88,0,0,0,9.65,4.1,13.24,13.24,0,0,0,5.43,1c1.47-.13,2.12-1.26,2.38-2.58l4.12-2.66L68.24,61a2.23,2.23,0,0,1,3.43-.18S77,65,81.6,65.48s11.59-2.76,12.46-4.06a2.81,2.81,0,0,0-1.24-4.3S78.5,49.18,77.08,48s-7.28-2.85-9.93-1.57S53.21,50.7,49,49.56A117.17,117.17,0,0,1,36,44.11ZM34.21,88.42a3.19,3.19,0,0,0,.68,4.47h0a14.9,14.9,0,0,0,2.47,1.46A9.3,9.3,0,0,0,41,102a11.12,11.12,0,0,0,6.37,2.3,8.94,8.94,0,0,0,10.74,6A10.49,10.49,0,0,0,60.49,113a11,11,0,0,0,5.31,2.09,30.09,30.09,0,0,0,6.62.2,3.19,3.19,0,0,0-.55-6.34c-2.95.22-6.44-.15-7.22-.78A3.77,3.77,0,0,1,63.29,106a3.31,3.31,0,0,0-4.8-2.58s-2.52,1.36-3.87.36a2.57,2.57,0,0,1-1.18-2.5,3.23,3.23,0,0,0-4.37-3.54,4.47,4.47,0,0,1-4.1-.84,3.54,3.54,0,0,1-1-3.79,3.31,3.31,0,0,0-2.78-4.19,6,6,0,0,1-2.47-1.14,3.18,3.18,0,0,0-4.46.59Z"/></g><path class="cls-4" d="M1.32,68.47A3.14,3.14,0,0,0,2.69,69a3.19,3.19,0,0,0,3.1-1.29L29.21,35.43A3.21,3.21,0,0,0,24,31.64L.6,64A3.19,3.19,0,0,0,1.32,68.47ZM110.56,36.19l18.09,37.54A3.16,3.16,0,0,0,131,75.5,3.19,3.19,0,0,0,134.34,71l-18-37.54a3.19,3.19,0,1,0-5.77,2.74v0Zm3,38.86a3.2,3.2,0,1,0,3,5.63,15.71,15.71,0,0,0,7.1-6.84,3.31,3.31,0,0,0,.17-2.14c-.61-2.18-10.53-21.91-14.75-30.29a3.21,3.21,0,0,0-3.82-1.66c-.08,0-9.42,2.93-17.2.3a3.2,3.2,0,0,0-2.05,6.06,36.15,36.15,0,0,0,18.59.41c4.55,9,10.73,21.52,12.61,25.62a12.17,12.17,0,0,1-3.61,2.9Zm-40,29.41,4.65,5.78s3.54,3.69,6.62,1l22.43-20.57s3.31-4.35,1.09-7.17L104,77.77s-3.31-1.66-5.33.15l-2,1.87a6.79,6.79,0,0,0-7.58.76,7.66,7.66,0,0,0-2.52,6.94,5.79,5.79,0,0,0-6,1.39c-2.81,2.7-1.13,7.3-1.13,7.3a6.62,6.62,0,0,0-4.83,1.66C72.11,99.89,73.58,104.47,73.58,104.47ZM33.13,41.28S14.42,66.78,13.55,68.8a12.84,12.84,0,0,0,5.11,5.88,35.88,35.88,0,0,0,9.65,4.1,13.24,13.24,0,0,0,5.43,1c1.47-.13,2.12-1.26,2.38-2.58l4.12-2.66L65.4,58.13a2.23,2.23,0,0,1,3.43-.18s5.36,4.22,9.93,4.7,11.59-2.76,12.46-4.06A2.81,2.81,0,0,0,90,54.29s-14.32-7.94-15.74-9.15S67,42.29,64.31,43.56s-13.94,4.3-18.12,3.16A117.17,117.17,0,0,1,33.13,41.28ZM31.37,85.58A3.19,3.19,0,0,0,32,90.05h0a14.9,14.9,0,0,0,2.47,1.46,9.3,9.3,0,0,0,3.69,7.61,11.12,11.12,0,0,0,6.37,2.3,8.94,8.94,0,0,0,10.74,6,10.49,10.49,0,0,0,2.33,2.78A11,11,0,0,0,63,112.27a30.09,30.09,0,0,0,6.62.2,3.19,3.19,0,0,0-.55-6.34c-2.95.22-6.44-.15-7.22-.78a3.77,3.77,0,0,1-1.37-2.22,3.31,3.31,0,0,0-4.8-2.58s-2.52,1.36-3.87.36a2.57,2.57,0,0,1-1.18-2.5,3.23,3.23,0,0,0-4.37-3.54,4.47,4.47,0,0,1-4.1-.84,3.54,3.54,0,0,1-1-3.79A3.31,3.31,0,0,0,38.36,86a6,6,0,0,1-2.47-1.14,3.18,3.18,0,0,0-4.46.59Z"/></g></g></g></svg>