<svg id="Calque_1" data-name="Calque 1" xmlns="http://www.w3.org/2000/svg" viewBox="0 0 656.41 217.13"><defs><style>.cls-1{fill:#288990;}.cls-2{fill:none;stroke:#ed9568;stroke-miterlimit:10;stroke-width:2.5px;}.cls-3{fill:#ed9568;}</style></defs><title>LogoFACE-HERAULT</title><path class="cls-1" d="M44.5,61c0-5.67.6-8.06,8.07-8.06h59.07c3.87,0-1.5,17-5.67,17H66.59c-3,0-5.37,1.2-5.37,6.57v53.1c0,2.68.3,5.37,5.07,5.37H92.83c9,0,2.69,18.2-2.08,18.2H66.59c-2.39,0-5.37.3-5.37,3.58v105c0,3-6.86,6-10.14,6-3.58,0-6.58.3-6.58-6.86Z" transform="translate(-44.5 -50.65)"/><path class="cls-1" d="M213.54,261.22c0,4.17-2.69,5.37-6.27,5.37-1.49,0-8.35,0-9.24-4.47,0-1.79-3.58-26.26-7.76-60-.89-3.28-2.09-3.28-3-3.28h-31c-.6,0-2.09,0-3,3.28-4.18,33.71-7.76,58.18-7.76,60-.6,4.47-7.76,4.47-9.25,4.47-3.58,0-6.26-1.19-6.26-5.37,0-4.48,26-199.6,26.56-202.88.89-3.28,3-5.37,6-5.37H181a5.42,5.42,0,0,1,5.67,5.37c.91,3.28,26.86,198.41,26.86,202.88m-32.23-80.85c4.18,0,5.37,0,4.18-5.37-6.86-50.72-12.23-104.43-13.12-104.43h-1.2c-.89,0-6.26,53.71-13.12,104.43-1.2,5.37,0,5.37,4.17,5.37Z" transform="translate(-44.5 -50.65)"/><path class="cls-1" d="M269.46,232.28c.28,8.65,6.56,19.69,22.08,19.69,12.82,0,22.66-11,22.66-18.2,0-4.48,16.71-6.86,16.71,2.09,0,18.2-20,34-43.86,31.32-19.1-2.38-34-16.11-33.12-34.91v-145c-.89-19.38,14-32.81,33.12-35.2,23.86-3,43.86,13.14,43.86,31.34,0,8.65-16.71,6.56-16.71,2.08,0-7.15-9.84-18.5-22.66-18.5-15.51,0-21.79,11.35-22.08,19.7Z" transform="translate(-44.5 -50.65)"/><path class="cls-1" d="M390.42,248.68c-3-.76-5.09-2.17-5.09-7.24V77.22c0-5.07,2.11-6.48,5.09-7.24,0,0,55.48-17.31,51.61-17.31H373.54c-4,0-5.21,2.6-5.21,5.52V260.47c0,2.92,1.19,5.52,5.21,5.52H442c3.87,0-51.61-17.31-51.61-17.31" transform="translate(-44.5 -50.65)"/><path class="cls-1" d="M407.87,162.63a1,1,0,0,1-1,1l-9.24-.78a1,1,0,0,1-1-1V159a1,1,0,0,1,1-1l9.24-.78a1,1,0,0,1,1,1Z" transform="translate(-44.5 -50.65)"/><rect class="cls-2" x="433.04" y="1.25" width="222.12" height="214.23"/><path class="cls-3" d="M511.27,194.56c0-1,.36-1.68,1.32-1.68s1.92.36,1.92,1.2v41.16c0,.6-1.2,1.14-2,1.14s-1.14-.6-1.14-1.5V214.54a1,1,0,0,0-1-1h-7.2c-.72,0-1,.12-1.08.72V235.3c0,.66-1.26,1.14-2.1,1.14a1.23,1.23,0,0,1-1.26-1.38v-40.5c0-1,.3-1.68,1.44-1.68s1.92.36,1.92,1.2V209c0,.6,0,1.14.6,1.2h8.1a.65.65,0,0,0,.54-.72Z" transform="translate(-44.5 -50.65)"/><path class="cls-3" d="M524.11,194.8c0-1,.18-1.44,1-1.68h13.8c.78,0-.36,3.48-1.14,3.48h-9.24c-.54,0-1,.24-1,1.26V208.3c0,.6.06,1.08,1,1.08h5.76c1.74,0,.48,3.6-.48,3.6h-5.22c-.48,0-1,.12-1,.84v17.52c0,1,.48,1.26,1,1.26h9.18c.78,0,1.86,3.42,1,3.42H525.13c-.84-.18-1-.66-1-1.62Zm4.92-9.66c-1.2.9-1.38,1.5-.9,2.34a1.67,1.67,0,0,0,1.92.66,43.36,43.36,0,0,0,6.3-3.48c.84-.48.66-1.56,0-2.52s-1.5-.66-2.52,0Z" transform="translate(-44.5 -50.65)"/><path class="cls-3" d="M565.27,235.06a1.38,1.38,0,0,1-1.38,1.08,3,3,0,0,1-2.22-.84s-6.18-19-6.84-20.88c-.18-.48-.42-.72-.78-.72h-1.14c-.42,0-.84.18-.84.72v20.64c0,.66-1.32,1.14-2,1.14s-1.32.18-1.32-1.26V194.56c0-1.08.12-1.62,1.56-1.62a65.72,65.72,0,0,1,7.08.24c8.22.84,7.56,8.1,7.62,10.5,0,0,.42,8.1-6.9,9.78ZM552.07,209c0,.6.12,1.08,1,1.08s2.58.06,3.24,0c5.52-.3,5.64-4.56,5.58-6.66,0-2.52-.06-6.3-5.22-6.84a28.39,28.39,0,0,0-3.54-.12c-.54,0-1.08.24-1.08,1.26Z" transform="translate(-44.5 -50.65)"/><path class="cls-3" d="M590.47,235.06c0,.84-.54,1.08-1.26,1.08-.3,0-1.68,0-1.86-.9,0-.36-.72-5.28-1.56-12.06-.18-.66-.42-.66-.6-.66h-6.24c-.12,0-.42,0-.6.66-.84,6.78-1.56,11.7-1.56,12.06-.12.9-1.56.9-1.86.9-.72,0-1.26-.24-1.26-1.08s5.22-40.14,5.34-40.8a1.27,1.27,0,0,1,1.2-1.08h3.72a1.09,1.09,0,0,1,1.14,1.08C585.25,194.92,590.47,234.16,590.47,235.06ZM584,218.8c.84,0,1.08,0,.84-1.08-1.38-10.2-2.46-21-2.64-21h-.24c-.18,0-1.26,10.8-2.64,21-.24,1.08,0,1.08.84,1.08Z" transform="translate(-44.5 -50.65)"/><path class="cls-3" d="M602.59,228.94s-.42,4.26,4.86,4.26,4.86-4.26,4.86-4.26v-35.1a.82.82,0,0,1,.84-.84h1.62a.76.76,0,0,1,.78.84v35.82c0,3.54-3.36,6.66-7.8,6.72h-.6c-4.38-.06-7.8-3.18-7.8-6.78V193.72A.64.64,0,0,1,600,193h1.56c1.08,0,1,.9,1,.9Z" transform="translate(-44.5 -50.65)"/><path class="cls-3" d="M626.23,194.62c0-.9.06-1.38,1-1.56.42-.06,2.28-.18,2.28.9v37.56c0,1.08.48,1.26,1.08,1.26h9.06c.78,0,.9,3.3.06,3.3s-12.42.06-12.48,0c-1-.12-1-.66-1-1.62Z" transform="translate(-44.5 -50.65)"/><path class="cls-3" d="M650.53,196.84s0-.66-.54-.66h-4.62c-.84,0-2-.24-2-1.14a2.32,2.32,0,0,1,1.74-2h14.7c.84,0,1.26.72,1.26,1.74s-.78,1.44-1.8,1.44H655a1.09,1.09,0,0,0-1.2.84V235.3c0,.66-1.08,1-2,1a1.18,1.18,0,0,1-1.32-1.26Z" transform="translate(-44.5 -50.65)"/></svg>